<?xml version="1.0" standalone="no"?>
<!DOCTYPE svg PUBLIC "-//W3C//DTD SVG 20010904//EN"
 "http://www.w3.org/TR/2001/REC-SVG-20010904/DTD/svg10.dtd">
<svg version="1.0" xmlns="http://www.w3.org/2000/svg"
 width="1261.000000pt" height="1080.000000pt" viewBox="0 0 1261.000000 1080.000000"
 preserveAspectRatio="xMidYMid meet">
<metadata>
Created by potrace 1.16, written by Peter Selinger 2001-2019
</metadata>
<g transform="translate(0.000000,1080.000000) scale(0.100000,-0.100000)"
fill="#000000" stroke="none">
<path d="M8370 7680 c-162 -4 -405 -10 -540 -14 -135 -3 -400 -8 -590 -11
-190 -4 -403 -8 -475 -10 -71 -2 -254 -7 -405 -10 -710 -13 -855 -16 -956 -20
-60 -2 -280 -6 -489 -9 -209 -3 -483 -9 -610 -12 -245 -7 -289 -8 -795 -18
-291 -6 -541 -19 -595 -30 -11 -3 -63 -14 -115 -25 -118 -24 -201 -47 -260
-71 -199 -80 -228 -94 -375 -176 -22 -13 -55 -31 -72 -40 -18 -9 -33 -20 -33
-25 0 -4 -15 -15 -33 -24 -18 -8 -62 -42 -99 -75 -36 -33 -71 -60 -76 -60 -12
0 -312 -308 -312 -321 0 -6 -24 -37 -52 -70 -29 -33 -66 -83 -82 -112 -16 -28
-36 -61 -46 -72 -19 -23 -90 -142 -90 -153 0 -4 -24 -55 -53 -113 -29 -58 -63
-136 -76 -172 -12 -37 -29 -79 -37 -95 -7 -15 -14 -32 -14 -38 0 -6 -11 -47
-26 -90 -36 -112 -77 -300 -95 -434 -31 -235 -30 -644 1 -805 6 -27 14 -79 19
-115 13 -99 87 -376 121 -455 5 -11 16 -42 25 -70 9 -27 20 -54 25 -60 4 -5
20 -39 34 -75 15 -36 33 -76 40 -90 7 -14 33 -61 56 -105 24 -44 48 -89 54
-100 6 -11 30 -46 54 -78 23 -31 42 -61 42 -65 0 -5 25 -38 55 -75 30 -36 55
-69 55 -72 0 -16 366 -374 408 -399 19 -11 96 -66 118 -85 6 -5 30 -19 52 -30
22 -11 43 -25 46 -30 7 -10 235 -124 291 -145 22 -8 65 -24 95 -36 77 -29 304
-87 370 -94 31 -3 78 -10 105 -16 45 -8 762 -5 995 4 47 2 276 7 510 11 234 4
463 8 510 10 99 4 510 12 970 21 179 3 381 7 450 9 119 3 320 7 975 21 160 3
344 7 410 9 66 2 287 6 490 10 823 13 898 18 1165 71 77 16 254 72 325 104
102 46 214 102 260 130 28 16 59 34 70 39 11 5 29 18 39 30 11 11 23 21 28 21
5 0 37 21 70 47 33 27 71 57 86 68 37 29 346 344 351 358 2 7 18 28 36 47 47
52 105 131 105 145 0 7 14 29 30 50 17 21 30 41 30 46 0 4 14 28 30 52 17 25
30 49 30 53 0 9 54 119 68 138 4 6 18 38 31 71 12 33 33 85 46 115 12 30 33
89 45 130 11 41 27 93 34 115 8 22 21 76 30 120 8 44 21 103 27 130 6 28 12
62 14 76 1 15 6 44 9 65 26 166 27 572 1 754 -31 230 -129 596 -195 735 -10
22 -31 67 -45 100 -51 114 -133 268 -146 273 -5 2 -9 10 -9 17 0 8 -19 38 -43
67 -23 29 -47 65 -54 79 -6 14 -36 53 -67 86 -31 33 -56 65 -56 70 0 11 -353
352 -380 368 -10 5 -43 29 -73 53 -31 23 -60 42 -66 42 -5 0 -23 11 -39 25
-45 38 -242 137 -362 183 -107 41 -281 92 -312 92 -9 0 -20 5 -24 11 -3 6 -14
9 -24 6 -9 -2 -64 4 -121 14 -114 19 -352 22 -919 9z m865 -647 c153 -24 355
-92 456 -153 25 -15 55 -30 66 -34 12 -4 37 -19 57 -34 32 -25 99 -74 151
-112 47 -34 265 -262 295 -309 19 -28 37 -51 42 -51 4 0 8 -5 8 -11 0 -6 16
-33 35 -58 19 -26 39 -58 45 -72 5 -13 14 -31 18 -39 33 -58 46 -82 73 -140
17 -36 37 -78 45 -93 8 -16 14 -36 14 -46 0 -9 5 -22 11 -28 10 -10 21 -44 65
-213 51 -192 77 -434 68 -635 -8 -179 -39 -409 -68 -498 -8 -23 -17 -55 -21
-72 -11 -50 -82 -239 -109 -290 -14 -26 -26 -52 -26 -57 0 -5 -13 -28 -28 -51
-16 -23 -34 -56 -41 -74 -7 -18 -20 -38 -28 -45 -8 -7 -19 -21 -24 -33 -15
-34 -42 -70 -91 -128 -27 -30 -48 -58 -48 -63 0 -21 -266 -264 -288 -264 -5 0
-15 -7 -23 -16 -60 -72 -438 -244 -536 -244 -16 0 -33 -4 -39 -9 -22 -21 -228
-31 -1014 -46 -312 -6 -687 -13 -1025 -20 -126 -3 -300 -7 -387 -10 -118 -5
-158 -3 -164 6 -8 13 -9 68 -19 689 -3 206 -7 425 -10 485 -3 61 -7 225 -10
365 -3 140 -7 386 -11 545 -3 160 -7 373 -9 475 -6 300 -15 724 -21 1042 -3
163 -2 298 3 301 10 6 519 20 1123 31 560 11 855 18 859 22 11 11 525 0 606
-13z m-6429 -1203 c15 -6 122 -104 238 -218 116 -114 300 -295 409 -402 109
-107 205 -207 213 -222 27 -52 6 -80 -286 -378 -151 -155 -336 -345 -410 -421
-124 -128 -138 -139 -171 -139 -65 0 -185 98 -208 170 -24 76 -29 71 376 482
128 130 233 241 233 246 0 6 -57 66 -127 134 -327 316 -474 465 -489 496 -11
23 -14 49 -11 75 9 65 129 177 199 186 4 1 19 -4 34 -9z m2281 -1548 c12 -7
32 -27 45 -44 21 -30 23 -42 20 -123 -3 -82 -5 -92 -30 -118 -15 -16 -37 -33
-50 -38 -23 -9 -223 -13 -1143 -24 -540 -7 -548 -6 -584 48 -20 31 -30 167
-15 212 13 38 45 70 80 78 14 3 342 9 730 12 388 4 706 8 707 9 10 8 223 -3
240 -12z"/>
</g>
</svg>
