<?xml version="1.0" standalone="no"?>
<!DOCTYPE svg PUBLIC "-//W3C//DTD SVG 20010904//EN"
 "http://www.w3.org/TR/2001/REC-SVG-20010904/DTD/svg10.dtd">
<svg version="1.0" xmlns="http://www.w3.org/2000/svg"
 width="1556.000000pt" height="1556.000000pt" viewBox="0 0 1556.000000 1556.000000"
 preserveAspectRatio="xMidYMid meet">
<metadata>
Created by potrace 1.16, written by Peter Selinger 2001-2019
</metadata>
<g transform="translate(0.000000,1556.000000) scale(0.100000,-0.100000)"
fill="#000000" stroke="none">
<path d="M10935 11973 c-269 -19 -499 -59 -680 -118 -38 -12 -115 -37 -170
-55 -55 -18 -118 -41 -140 -51 -22 -10 -63 -24 -91 -32 -28 -8 -60 -20 -70
-26 -29 -16 -88 -40 -204 -81 -304 -109 -497 -182 -516 -195 -12 -7 -38 -17
-60 -21 -33 -6 -85 -26 -169 -65 -11 -5 -51 -20 -90 -33 -38 -14 -144 -52
-235 -86 -161 -60 -404 -149 -485 -176 -22 -8 -62 -25 -90 -39 -27 -13 -70
-30 -95 -38 -25 -8 -90 -31 -145 -52 -55 -21 -136 -51 -180 -67 -44 -17 -90
-34 -102 -39 -13 -5 -33 -13 -45 -18 -22 -9 -195 -71 -308 -112 -30 -11 -64
-23 -75 -28 -63 -27 -86 -35 -140 -53 -32 -11 -77 -28 -100 -38 -22 -10 -71
-28 -110 -40 -38 -13 -88 -31 -110 -40 -22 -10 -76 -30 -120 -45 -79 -27 -198
-73 -265 -102 -19 -8 -44 -19 -55 -24 -11 -4 -45 -16 -75 -25 -30 -9 -73 -25
-96 -35 -22 -10 -92 -37 -155 -60 -62 -22 -163 -59 -224 -81 -60 -22 -136 -48
-167 -59 -32 -11 -79 -31 -104 -44 -26 -14 -55 -25 -66 -25 -10 0 -26 -5 -36
-10 -35 -21 -344 -136 -727 -271 -60 -21 -126 -47 -145 -58 -19 -10 -50 -21
-69 -25 -19 -3 -42 -12 -50 -20 -9 -7 -37 -19 -64 -26 -26 -7 -50 -17 -53 -21
-3 -5 -13 -9 -22 -9 -14 0 -123 -39 -197 -70 -11 -5 -40 -16 -65 -24 -90 -30
-212 -76 -305 -115 -52 -23 -100 -41 -106 -41 -6 0 -25 -7 -42 -15 -35 -16
-220 -85 -307 -114 -30 -10 -84 -32 -120 -49 -36 -16 -75 -32 -87 -36 -24 -8
-182 -87 -218 -109 -11 -6 -39 -24 -62 -39 -23 -16 -45 -28 -48 -28 -7 0 -48
-27 -145 -95 -115 -81 -345 -285 -432 -384 -27 -31 -76 -86 -109 -122 -33 -36
-68 -80 -77 -97 -9 -17 -38 -59 -64 -95 -26 -35 -61 -90 -77 -123 -16 -33 -39
-68 -50 -78 -12 -11 -21 -23 -21 -27 0 -5 -18 -46 -39 -91 -114 -241 -174
-378 -194 -438 -8 -25 -26 -76 -40 -115 -14 -38 -28 -88 -32 -110 -4 -22 -10
-51 -15 -65 -4 -14 -12 -47 -18 -75 -6 -27 -18 -80 -26 -116 -9 -36 -18 -88
-20 -115 -2 -27 -9 -96 -16 -154 -31 -275 -29 -644 5 -865 8 -55 19 -129 24
-165 14 -95 41 -230 52 -265 6 -16 21 -71 34 -121 13 -50 33 -115 45 -144 11
-29 26 -76 32 -104 6 -28 25 -82 43 -121 18 -38 49 -110 69 -160 37 -89 64
-147 103 -215 11 -20 37 -69 58 -110 21 -41 68 -119 104 -173 36 -54 73 -110
81 -125 8 -15 35 -53 60 -86 25 -32 59 -79 77 -104 18 -25 36 -48 41 -51 4 -3
32 -35 62 -71 29 -36 59 -69 65 -75 7 -5 41 -42 77 -81 35 -40 111 -113 169
-164 57 -51 111 -100 119 -110 21 -23 148 -120 158 -120 4 0 31 -19 59 -42 27
-24 69 -54 92 -68 23 -14 57 -35 74 -47 18 -12 69 -40 113 -61 45 -22 84 -44
88 -50 8 -13 92 -52 112 -52 8 0 97 -38 198 -85 100 -47 191 -85 200 -85 9 0
31 -7 47 -16 17 -8 52 -19 77 -24 115 -22 193 -40 209 -49 67 -36 602 -68 798
-48 44 5 99 10 122 12 23 3 71 11 107 19 36 9 95 20 133 26 68 11 210 51 271
76 18 8 37 14 43 14 5 0 78 25 162 56 83 31 213 78 287 105 74 27 145 54 158
59 12 6 32 14 45 19 12 5 43 18 69 30 26 12 51 21 55 21 5 0 62 21 128 46 66
25 157 58 201 74 45 15 97 35 115 43 19 8 95 36 169 62 74 26 149 53 165 60
17 7 52 21 78 31 26 9 50 21 53 25 3 5 12 9 20 9 8 0 67 21 132 46 64 26 167
64 227 85 61 20 128 44 150 53 22 8 83 30 135 49 52 19 129 48 170 65 132 55
394 152 720 268 68 24 129 49 134 54 6 6 17 10 26 10 9 0 33 9 55 20 22 11 47
20 58 20 10 0 36 9 59 21 38 19 115 49 313 118 44 16 96 35 115 44 36 15 196
74 350 129 47 16 90 34 96 39 6 5 67 29 135 53 68 25 162 59 209 76 47 17 130
47 185 66 120 42 206 75 220 86 6 4 53 21 105 39 52 17 100 35 105 39 6 4 31
15 58 24 26 9 102 37 170 62 67 25 154 57 192 70 39 14 93 34 120 45 28 12 70
27 95 34 25 7 61 19 80 28 19 8 67 27 105 43 39 15 88 35 110 44 22 10 85 33
140 53 96 34 265 96 390 142 33 13 98 37 145 54 47 17 94 35 105 40 11 5 37
16 57 25 21 9 56 23 79 32 23 8 47 18 53 23 6 5 28 14 48 20 44 14 209 103
321 172 43 27 83 49 87 49 5 0 13 6 17 13 4 7 26 26 48 43 45 33 160 125 189
151 98 88 235 224 252 249 11 16 47 57 78 90 32 32 64 73 73 89 9 17 40 63 71
104 62 83 81 116 185 326 134 272 197 410 197 436 0 11 11 42 25 69 14 27 25
55 25 62 0 7 9 42 19 78 21 71 38 140 51 210 14 77 67 434 67 460 4 146 3 435
-2 513 -8 128 -50 435 -69 517 -18 75 -28 117 -50 218 -9 40 -21 81 -26 90
-14 26 -70 200 -70 218 0 8 -13 43 -28 77 -16 34 -35 78 -42 97 -41 111 -145
317 -274 542 -28 48 -182 273 -218 318 -124 155 -196 235 -329 370 -148 150
-384 351 -428 365 -12 3 -21 10 -21 15 0 11 -126 94 -173 114 -21 8 -46 24
-55 34 -9 11 -33 25 -52 32 -19 8 -47 22 -62 32 -14 10 -29 18 -33 18 -7 0
-187 82 -353 161 -57 27 -113 49 -125 49 -12 0 -40 9 -62 19 -22 9 -76 25
-120 35 -44 9 -100 24 -125 32 -39 14 -233 45 -365 59 -53 6 -309 11 -360 8z
m400 -43 c28 -5 95 -14 150 -20 55 -7 118 -18 140 -26 22 -8 63 -19 90 -23 71
-13 155 -37 190 -55 17 -9 42 -16 57 -16 14 0 91 -31 170 -68 79 -38 177 -83
218 -102 133 -58 219 -103 224 -115 2 -7 36 -27 75 -45 39 -18 71 -36 71 -40
0 -4 11 -12 24 -18 13 -6 37 -22 52 -37 16 -14 58 -45 94 -68 36 -23 85 -61
110 -84 25 -24 48 -43 52 -43 15 0 376 -371 433 -445 33 -42 75 -95 93 -118
18 -22 63 -85 100 -141 36 -56 70 -103 74 -106 4 -3 18 -26 31 -50 13 -25 58
-104 100 -177 41 -72 78 -141 82 -152 3 -12 10 -21 15 -21 4 0 11 -17 15 -37
3 -21 12 -47 20 -58 7 -12 25 -52 40 -90 15 -39 38 -92 51 -118 12 -26 26 -62
29 -80 7 -36 52 -176 71 -222 22 -55 79 -313 99 -450 42 -287 46 -335 45 -620
0 -233 -1 -264 -20 -390 -6 -44 -13 -96 -15 -115 -2 -19 -9 -60 -15 -90 -6
-30 -15 -77 -19 -105 -5 -27 -14 -63 -20 -78 -6 -16 -11 -40 -11 -55 0 -32
-42 -169 -70 -229 -11 -24 -20 -52 -20 -63 0 -19 -17 -60 -83 -200 -19 -41
-63 -136 -97 -210 -35 -74 -76 -150 -91 -168 -16 -18 -29 -39 -29 -46 0 -16
-95 -160 -127 -192 -13 -13 -23 -29 -23 -37 0 -7 -24 -38 -53 -68 -29 -30 -64
-70 -77 -89 -13 -19 -67 -75 -119 -125 -53 -49 -110 -105 -128 -122 -17 -18
-34 -33 -37 -33 -3 0 -15 -8 -25 -17 -65 -60 -253 -203 -267 -203 -5 0 -153
-88 -204 -120 -8 -6 -21 -12 -27 -15 -7 -3 -19 -7 -25 -10 -7 -3 -20 -9 -28
-14 -8 -5 -40 -19 -70 -31 -126 -51 -266 -110 -282 -120 -10 -5 -27 -10 -38
-10 -11 0 -29 -4 -40 -10 -11 -6 -30 -15 -42 -21 -12 -6 -44 -19 -72 -29 -28
-10 -96 -35 -151 -55 -55 -21 -149 -55 -210 -76 -118 -42 -210 -78 -290 -111
-27 -11 -90 -35 -140 -53 -81 -29 -196 -72 -295 -109 -19 -8 -98 -36 -175 -63
-77 -27 -154 -57 -172 -66 -18 -10 -37 -17 -43 -17 -7 0 -26 -6 -43 -14 -18
-8 -50 -19 -72 -26 -22 -6 -62 -22 -90 -35 -27 -13 -99 -42 -160 -64 -60 -22
-171 -62 -245 -89 -74 -27 -164 -60 -200 -72 -36 -12 -88 -33 -116 -46 -28
-13 -58 -24 -67 -24 -9 0 -19 -4 -22 -10 -3 -5 -14 -10 -24 -10 -9 0 -39 -11
-67 -23 -71 -34 -218 -87 -240 -87 -11 0 -29 -7 -41 -15 -11 -8 -42 -22 -69
-30 -27 -9 -60 -21 -74 -27 -45 -19 -64 -26 -130 -48 -65 -21 -75 -25 -140
-53 -19 -8 -57 -23 -85 -32 -27 -9 -54 -20 -60 -24 -5 -5 -21 -11 -35 -14 -14
-3 -56 -18 -95 -35 -38 -16 -142 -55 -230 -86 -212 -76 -298 -108 -310 -117
-5 -4 -24 -10 -42 -13 -27 -6 -94 -32 -308 -118 -27 -11 -98 -38 -157 -59 -60
-22 -159 -57 -220 -80 -62 -22 -124 -45 -138 -49 -14 -5 -50 -18 -80 -30 -30
-11 -75 -28 -100 -37 -25 -8 -49 -18 -55 -22 -5 -4 -30 -14 -55 -21 -25 -8
-54 -19 -65 -26 -21 -12 -106 -44 -440 -164 -233 -83 -348 -126 -390 -145 -16
-7 -51 -22 -77 -34 -26 -12 -54 -21 -61 -21 -8 0 -17 -3 -20 -7 -7 -6 -70 -30
-157 -59 -25 -8 -56 -20 -70 -26 -44 -19 -64 -26 -130 -48 -36 -12 -83 -30
-105 -39 -22 -10 -80 -30 -130 -45 -49 -15 -117 -36 -150 -46 -33 -11 -96 -26
-140 -34 -44 -8 -89 -17 -100 -20 -63 -14 -112 -23 -130 -23 -11 0 -60 -4
-110 -9 -133 -13 -473 -6 -595 12 -58 9 -129 18 -159 20 -30 2 -59 9 -66 14
-6 5 -35 14 -65 19 -85 15 -166 37 -201 55 -18 9 -42 16 -54 16 -13 0 -76 25
-141 56 -162 77 -223 103 -248 108 -38 7 -81 27 -101 46 -11 11 -55 35 -98 55
-43 20 -86 44 -96 53 -10 9 -45 32 -78 50 -33 18 -77 49 -98 68 -21 19 -42 34
-45 34 -9 0 -106 73 -162 121 -47 41 -72 64 -184 170 -78 74 -233 238 -264
279 -14 19 -37 45 -53 59 -15 14 -27 30 -27 36 0 5 -10 22 -23 37 -57 68 -117
146 -117 152 0 3 -33 55 -74 115 -41 60 -77 118 -80 129 -4 11 -27 55 -51 98
-25 43 -48 87 -51 96 -3 10 -10 18 -15 18 -5 0 -9 8 -9 17 0 9 -6 24 -13 32
-7 9 -19 34 -26 56 -7 22 -21 59 -32 82 -10 24 -28 62 -38 85 -11 24 -29 66
-42 93 -12 28 -28 75 -35 105 -7 30 -21 80 -32 110 -37 102 -76 249 -111 425
-15 75 -50 330 -56 410 -6 73 -6 487 0 565 8 111 16 187 25 215 5 17 8 44 8
60 -1 59 33 222 63 303 5 13 9 36 9 51 0 16 16 71 36 122 20 52 39 112 43 134
8 41 50 138 160 368 34 70 61 132 61 137 0 6 12 20 26 33 14 12 36 45 49 72
26 58 85 151 113 180 11 11 27 34 35 50 8 17 39 55 69 86 29 31 73 80 98 109
40 48 104 111 210 207 158 145 395 307 587 403 44 22 84 40 88 40 3 0 30 11
58 24 65 31 258 105 352 136 39 12 87 31 107 41 21 11 45 19 54 19 9 0 49 16
90 35 40 19 79 35 87 35 7 0 18 5 24 11 6 6 17 11 24 13 18 2 164 54 205 72
18 8 58 23 90 33 122 40 260 91 279 103 11 6 47 21 80 34 33 12 92 34 130 49
39 15 81 31 95 35 14 5 68 24 120 43 52 19 151 55 220 79 69 25 139 52 157 61
18 10 39 17 48 17 9 0 34 9 57 21 40 21 152 59 171 59 6 0 18 6 26 14 9 7 156
64 326 125 171 61 322 118 337 126 14 8 34 15 43 15 16 0 67 19 107 41 10 5
24 9 31 9 7 0 41 14 75 30 34 17 67 30 72 30 6 0 18 4 28 9 25 13 56 24 157
60 50 18 99 36 110 41 11 5 31 12 45 15 14 3 43 13 65 22 22 8 49 19 60 23 31
12 78 32 97 41 10 5 25 9 33 9 9 0 35 9 57 20 23 11 50 20 59 20 10 0 20 4 24
9 3 5 36 19 73 32 37 12 72 25 77 29 6 4 55 23 110 43 92 32 187 66 450 161
54 20 104 41 109 46 6 6 19 10 30 10 11 0 54 16 96 35 41 18 158 64 260 100
323 116 562 205 650 241 47 20 110 42 140 51 30 8 66 21 80 28 29 15 80 37
130 55 19 6 45 16 58 21 48 19 69 27 122 44 49 16 71 24 145 56 11 4 43 15 70
24 28 9 75 27 105 40 80 34 187 75 197 75 5 0 28 9 51 20 22 11 46 20 52 20 5
0 29 8 53 19 23 10 69 26 102 35 33 9 80 24 105 32 95 33 242 65 435 95 165
25 521 30 640 9z"/>
<path d="M10880 11113 c-83 -7 -265 -42 -350 -67 -84 -24 -323 -109 -471 -167
-42 -16 -79 -29 -82 -29 -8 0 -90 -35 -119 -51 -10 -5 -26 -9 -36 -9 -9 0 -33
-8 -52 -19 -19 -10 -46 -21 -60 -25 -14 -4 -63 -23 -110 -41 -77 -31 -301
-113 -485 -178 -81 -29 -114 -42 -170 -67 -22 -10 -58 -23 -80 -30 -43 -12
-52 -16 -130 -48 -75 -32 -230 -90 -315 -119 -41 -14 -93 -34 -114 -44 -22
-10 -46 -19 -53 -19 -7 0 -48 -14 -91 -31 -42 -17 -93 -37 -112 -44 -19 -7
-64 -24 -100 -38 -63 -25 -280 -105 -390 -145 -48 -17 -55 -23 -58 -49 -2 -17
8 -56 22 -88 15 -32 26 -62 26 -68 0 -5 9 -28 19 -51 26 -55 34 -78 36 -98 1
-10 7 -23 13 -30 5 -7 17 -33 25 -58 19 -57 72 -200 182 -500 124 -336 132
-357 167 -440 46 -111 46 -111 62 -160 8 -25 29 -83 46 -130 18 -47 35 -96 40
-110 17 -52 69 -190 83 -222 9 -18 31 -79 50 -134 20 -56 40 -110 46 -120 10
-18 22 -49 111 -294 23 -63 50 -137 60 -165 93 -250 132 -351 139 -360 5 -5
11 -25 15 -44 3 -19 18 -58 31 -88 14 -29 28 -67 32 -85 3 -18 9 -38 14 -43 7
-9 51 -128 164 -440 18 -49 38 -103 45 -120 7 -16 16 -39 20 -50 11 -29 28
-68 39 -85 4 -8 18 -49 31 -90 12 -41 27 -88 34 -105 7 -16 18 -41 24 -55 6
-14 27 -72 48 -130 49 -140 127 -351 154 -417 12 -29 45 -30 113 -2 69 28 110
43 181 69 33 12 71 28 85 35 15 8 46 21 71 29 25 8 63 21 85 29 22 8 49 18 60
22 11 4 56 21 100 37 44 16 109 40 145 53 36 13 83 31 105 39 22 8 76 28 120
45 44 16 150 57 235 90 145 56 257 97 524 192 59 22 125 46 145 55 46 21 67
28 116 44 22 7 60 22 85 32 25 11 54 24 65 29 20 8 77 29 280 102 239 86 350
129 355 136 3 4 22 11 44 14 21 3 46 13 56 22 9 8 21 15 27 15 13 0 122 52
178 85 22 13 61 34 86 48 47 25 56 32 136 100 24 20 48 37 53 37 16 0 253 241
288 293 18 26 37 47 41 47 4 0 16 18 26 40 10 22 24 45 32 52 8 6 24 29 36 51
12 21 34 60 49 86 47 81 149 295 155 325 4 17 12 42 20 56 7 14 13 31 13 38 0
7 8 27 17 45 15 30 29 78 38 137 2 14 11 52 19 85 49 204 64 356 60 605 -3
216 -10 356 -20 371 -3 5 -11 48 -19 96 -22 135 -61 303 -84 356 -12 27 -21
55 -21 63 0 33 -120 340 -160 407 -10 18 -40 74 -67 126 -26 52 -52 99 -58
105 -17 20 -55 75 -55 81 0 16 -158 231 -194 264 -14 14 -26 30 -26 37 0 7 -9
18 -21 24 -11 6 -28 24 -37 38 -9 15 -47 54 -83 87 -102 93 -113 104 -130 122
-23 26 -118 107 -137 117 -9 5 -35 23 -57 40 -21 17 -47 36 -56 41 -9 6 -45
29 -80 52 -35 23 -83 53 -107 68 -47 30 -317 155 -333 155 -6 0 -31 8 -57 19
-26 10 -67 24 -92 31 -25 7 -63 18 -85 26 -22 7 -69 18 -105 24 -36 5 -76 12
-90 15 -107 20 -338 29 -470 18z"/>
<path d="M3166 6770 c-38 -29 -59 -64 -118 -200 -30 -69 -19 -137 33 -190 39
-40 75 -59 359 -190 69 -32 169 -78 223 -104 236 -111 425 -196 436 -196 29 0
17 -40 -59 -202 -46 -95 -124 -263 -175 -373 -51 -110 -111 -238 -133 -285
-78 -167 -82 -178 -82 -233 0 -84 37 -128 156 -183 80 -38 103 -44 159 -44 60
0 67 2 95 33 18 17 55 84 84 147 47 102 210 453 286 615 16 33 44 94 63 135
19 41 54 116 77 165 153 326 158 339 153 391 -8 65 -28 84 -163 150 -61 30
-113 54 -115 54 -1 0 -86 39 -187 86 -100 47 -196 92 -213 100 -16 7 -194 90
-395 184 -407 190 -415 192 -484 140z"/>
<path d="M6710 5873 c-14 -2 -34 -8 -45 -13 -11 -4 -40 -15 -65 -23 -56 -19
-215 -77 -430 -157 -91 -34 -208 -76 -260 -95 -179 -63 -345 -123 -430 -155
-219 -82 -493 -181 -655 -238 -146 -51 -177 -70 -202 -121 -20 -42 -19 -138 2
-161 7 -8 21 -40 29 -71 29 -100 110 -154 203 -136 46 9 195 63 238 86 22 11
47 21 55 21 18 0 157 50 220 79 25 11 54 21 66 21 11 0 24 3 27 6 7 7 37 18
197 73 52 18 104 39 116 46 11 7 54 23 95 35 41 12 83 27 94 34 11 7 47 20 80
30 33 10 94 32 135 48 41 17 96 36 121 43 26 7 75 25 110 40 35 15 78 30 94
34 31 8 182 64 220 81 11 5 44 17 74 26 67 21 124 75 141 131 11 36 11 49 -2
85 -9 24 -21 63 -28 88 -20 72 -41 107 -81 133 -39 26 -79 36 -119 30z"/>
</g>
</svg>
